<svg width="72" height="72" viewBox="0 0 72 72" fill="none" xmlns="http://www.w3.org/2000/svg">
<rect x="2" y="2" width="68" height="68" rx="2" fill="#0A9418" fill-opacity="0.75" stroke="#06600F" stroke-width="4"/>
<path d="M34.3749 31.6051C34.3749 32.5022 34.1507 33.2978 33.7021 33.9918C33.2535 34.6858 32.6357 35.2402 31.8486 35.6549C32.7457 36.0865 33.4566 36.6832 33.9814 37.4449C34.5061 38.1982 34.7685 39.0869 34.7685 40.111C34.7685 41.7529 34.2099 43.052 33.0927 44.0084C31.9755 44.9563 30.4563 45.4303 28.5351 45.4303C26.6139 45.4303 25.0904 44.9521 23.9648 43.9957C22.8391 43.0393 22.2763 41.7444 22.2763 40.111C22.2763 39.0869 22.5387 38.194 23.0634 37.4323C23.5882 36.6705 24.2949 36.0781 25.1835 35.6549C24.3964 35.2402 23.7786 34.6858 23.33 33.9918C22.8899 33.2978 22.6699 32.5022 22.6699 31.6051C22.6699 30.0309 23.1946 28.7783 24.2441 27.8473C25.2936 26.9078 26.7197 26.4381 28.5224 26.4381C30.3167 26.4381 31.7385 26.9036 32.788 27.8346C33.846 28.7571 34.3749 30.014 34.3749 31.6051ZM31.0869 39.8444C31.0869 39.0403 30.8541 38.3971 30.3886 37.9147C29.9231 37.4323 29.2968 37.191 28.5097 37.191C27.7311 37.191 27.109 37.4323 26.6435 37.9147C26.178 38.3886 25.9453 39.0319 25.9453 39.8444C25.9453 40.6315 26.1738 41.2662 26.6308 41.7487C27.0878 42.2311 27.7226 42.4723 28.5351 42.4723C29.3307 42.4723 29.9527 42.2395 30.4013 41.774C30.8583 41.3086 31.0869 40.6653 31.0869 39.8444ZM30.706 31.7828C30.706 31.0634 30.5156 30.4879 30.1347 30.0563C29.7538 29.6162 29.2164 29.3961 28.5224 29.3961C27.8369 29.3961 27.3037 29.6077 26.9228 30.0309C26.5419 30.4541 26.3515 31.038 26.3515 31.7828C26.3515 32.5192 26.5419 33.1116 26.9228 33.5602C27.3037 34.0087 27.8411 34.233 28.5351 34.233C29.2291 34.233 29.7623 34.0087 30.1347 33.5602C30.5156 33.1116 30.706 32.5192 30.706 31.7828ZM49.3046 31.6051C49.3046 32.5022 49.0803 33.2978 48.6318 33.9918C48.1832 34.6858 47.5654 35.2402 46.7783 35.6549C47.6754 36.0865 48.3863 36.6832 48.9111 37.4449C49.4358 38.1982 49.6982 39.0869 49.6982 40.111C49.6982 41.7529 49.1396 43.052 48.0224 44.0084C46.9052 44.9563 45.386 45.4303 43.4648 45.4303C41.5436 45.4303 40.0201 44.9521 38.8945 43.9957C37.7688 43.0393 37.206 41.7444 37.206 40.111C37.206 39.0869 37.4684 38.194 37.9931 37.4323C38.5178 36.6705 39.2246 36.0781 40.1132 35.6549C39.3261 35.2402 38.7083 34.6858 38.2597 33.9918C37.8196 33.2978 37.5996 32.5022 37.5996 31.6051C37.5996 30.0309 38.1243 28.7783 39.1738 27.8473C40.2233 26.9078 41.6494 26.4381 43.4521 26.4381C45.2464 26.4381 46.6682 26.9036 47.7177 27.8346C48.7757 28.7571 49.3046 30.014 49.3046 31.6051ZM46.0165 39.8444C46.0165 39.0403 45.7838 38.3971 45.3183 37.9147C44.8528 37.4323 44.2265 37.191 43.4394 37.191C42.6608 37.191 42.0387 37.4323 41.5732 37.9147C41.1077 38.3886 40.8749 39.0319 40.8749 39.8444C40.8749 40.6315 41.1035 41.2662 41.5605 41.7487C42.0175 42.2311 42.6523 42.4723 43.4648 42.4723C44.2604 42.4723 44.8824 42.2395 45.331 41.774C45.788 41.3086 46.0165 40.6653 46.0165 39.8444ZM45.6357 31.7828C45.6357 31.0634 45.4453 30.4879 45.0644 30.0563C44.6835 29.6162 44.1461 29.3961 43.4521 29.3961C42.7665 29.3961 42.2333 29.6077 41.8525 30.0309C41.4716 30.4541 41.2812 31.038 41.2812 31.7828C41.2812 32.5192 41.4716 33.1116 41.8525 33.5602C42.2333 34.0087 42.7708 34.233 43.4648 34.233C44.1588 34.233 44.692 34.0087 45.0644 33.5602C45.4453 33.1116 45.6357 32.5192 45.6357 31.7828Z" fill="white"/>
</svg>
